# xmcd CD database file
#
# Track frame offsets:
#	150
#	13656
#	23341
#	38417
#	49709
#	59563
#	78189
#	91689
#	115222
#	138028
#	147589
#	163964
#	177147
#	196903
#	209981
#	227856
#	248310
#
# Disc length: 3456 seconds
#
# Revision: 0
# Processed by: cddbd v1.5.1PL0 Copyright (c) Steve Scherf et al.
# Submitted via: CDex 1.51
#
DISCID=d90d7e11
DTITLE=Cloudsplitter - Songs For Elva
DYEAR=2004
DGENRE=Country
TTITLE0=My Heroes Have Always Been Cowboys
TTITLE1=Mama Tried
TTITLE2=California Cottonfields
TTITLE3=Dustbowl Blues
TTITLE4=Somebody Else You've Known
TTITLE5=He Stopped Loving Her Today
TTITLE6=I Fall To Pieces
TTITLE7=$1000  Wedding
TTITLE8=Me and Paul
TTITLE9=Graveyard Shift
TTITLE10=Bartenders Blues
TTITLE11=Luxury Liner
TTITLE12=In My Hour of Darkness
TTITLE13=Rain
TTITLE14=Angel Flying Too Close To The Ground
TTITLE15=You Don't Miss Your Water
TTITLE16=Remember Me
EXTD=YEAR: 2004
EXTT0=
EXTT1=
EXTT2=
EXTT3=
EXTT4=
EXTT5=
EXTT6=
EXTT7=
EXTT8=
EXTT9=
EXTT10=
EXTT11=
EXTT12=
EXTT13=
EXTT14=
EXTT15=
EXTT16=
PLAYORDER=
